<svg xmlns="http://www.w3.org/2000/svg" xmlns:xlink="http://www.w3.org/1999/xlink" version="1.1" id="Livello_1" x="0px" y="0px" width="106px" height="25.237px" viewBox="0 0 106 25.237" enable-background="new 0 0 106 25.237" xml:space="preserve">
<path fill="#FFFFFF" d="M61.556,0h0.161c-0.035,0.159-0.195,0.34-0.35,0.217C61.414,0.162,61.509,0.054,61.556,0z"/>
	<path fill="#FFFFFF" d="M89.031,0.949c0.276-0.055,0.558-0.082,0.838-0.103c0.039,0.031,0.118,0.093,0.157,0.124  C89.694,0.971,89.361,0.973,89.031,0.949z"/>
	<path fill="#FFFFFF" d="M84.336,16.874c-0.331-0.045-0.496,0.339-0.729,0.517c-0.06-0.247-0.096-0.501-0.082-0.757  c0.045-1.373,0.557-2.675,0.589-4.05c0.02-0.567-0.131-1.116-0.245-1.663c-0.212-0.892-0.115-1.818-0.176-2.727  c-0.143-0.136-0.361-0.218-0.424-0.426c-0.24-0.803-0.46-1.619-0.812-2.377c-0.376-0.802-0.947-1.486-1.611-2.027  c-0.112,0.005-0.222,0.011-0.332,0.016c-0.073-0.124-0.108-0.31-0.275-0.315c-0.166,0.083-0.263,0.264-0.406,0.379  c-0.346,0.021-0.693-0.066-1.036,0.003c-0.362,0.113-0.652,0.388-0.983,0.571c-0.314,0.19-0.699,0.312-0.898,0.659  c-0.371,0.607-0.525,1.325-0.821,1.972c-0.218,0.294-0.454,0.584-0.553,0.955c-0.335,1.072-0.464,2.207-0.54,3.329l0.831,5.4  c-0.093,0.19-0.23,0.351-0.348,0.524c0.521,0.126,1.262-0.06,1.556,0.547c0.678,1.043,1.221,2.223,2.156,3.044  c0.365,0.313,0.856,0.593,1.332,0.41c0.602-0.237,1.109-0.675,1.613-1.087c0.406-0.358,0.836-0.726,1.084-1.234  c0.121-0.212,0.018-0.441-0.049-0.65c0.424,0.135,0.943,0.072,1.269-0.266C84.634,17.419,84.687,16.898,84.336,16.874z"/>
	<path fill="#FFFFFF" d="M43.659,3.464c0.394-0.115,0.904-0.124,1.187,0.246c0.253,0.3,0.23,0.728,0.259,1.103  c0.338,5.214,0.678,10.427,1.019,15.641c0.044,0.39-0.034,0.85-0.377,1.065c-0.433,0.269-1.098,0.276-1.426-0.18  c-0.231-0.315-0.202-0.736-0.234-1.112c-0.335-5.251-0.685-10.499-1.02-15.749C43.021,4.044,43.258,3.593,43.659,3.464z"/>
	<path fill="#FFFFFF" d="M99.921,17.059c-0.339-0.131-0.532,0.266-0.755,0.452c-0.055-0.213-0.103-0.432-0.086-0.654  c0.057-1.267,0.535-2.462,0.605-3.727c0.057-0.857-0.303-1.663-0.318-2.514c-0.015-0.55,0.007-1.101-0.016-1.65  c-0.137-0.129-0.338-0.213-0.389-0.416c-0.255-0.881-0.474-1.79-0.917-2.591c-0.326-0.594-0.78-1.094-1.274-1.531  c-0.072,0.008-0.215,0.022-0.287,0.03c-0.048-0.095-0.102-0.186-0.158-0.274c-0.232-0.107-0.328,0.2-0.499,0.296  c-0.444,0.017-0.935-0.14-1.328,0.162c-0.386,0.278-0.826,0.453-1.213,0.724c-0.543,0.569-0.632,1.434-1.022,2.104  c-0.324,0.346-0.504,0.802-0.618,1.268c-0.213,0.867-0.342,1.758-0.405,2.651c-0.134,1.719,0.588,3.33,0.712,5.022  c-0.115,0.15-0.229,0.299-0.342,0.449c0.357,0.066,0.725,0.073,1.076,0.179c0.298,0.093,0.391,0.448,0.56,0.688  c0.554,0.888,1.009,1.882,1.801,2.566c0.323,0.281,0.755,0.525,1.182,0.385c0.476-0.165,0.887-0.487,1.292-0.795  c0.46-0.379,0.962-0.749,1.255-1.301c0.13-0.191,0.034-0.413-0.026-0.609c0.374,0.1,0.813,0.077,1.13-0.183  C100.077,17.625,100.176,17.205,99.921,17.059z"/>
	<path fill="#FFFFFF" d="M2.109,6.732c1.572-1.009,3.492-0.969,5.252-0.736c0.646,0.11,1.348,0.221,1.862,0.69  c0.601,0.532,0.192,1.811-0.604,1.776c-0.829-0.041-1.63-0.3-2.449-0.418c-0.76-0.119-1.546-0.07-2.285,0.155  C3.252,8.404,2.617,8.8,2.326,9.461c-0.296,0.696-0.25,1.513-0.033,2.226c0.273,0.862,0.986,1.466,1.752,1.803  c1.166,0.506,2.329,1.021,3.491,1.536c0.652,0.264,1.184,0.791,1.589,1.385c0.735,1.098,0.935,2.509,0.818,3.827  c-0.085,1.082-0.568,2.128-1.358,2.822c-1.087,0.965-2.519,1.368-3.909,1.448H3.425c-0.907-0.057-1.842-0.11-2.693-0.477  C0.398,23.896,0.125,23.615,0,23.256v-0.339c0.112-0.361,0.373-0.67,0.73-0.756c0.986-0.259,1.973,0.148,2.957,0.222  c0.965,0.061,1.964-0.012,2.864-0.412c0.624-0.277,1.183-0.817,1.334-1.542c0.148-0.74,0.066-1.539-0.242-2.222  c-0.338-0.741-1-1.248-1.702-1.552c-1.122-0.481-2.238-0.98-3.355-1.474c-0.888-0.357-1.599-1.13-2.012-2.033  c-0.476-1.056-0.538-2.27-0.404-3.418C0.33,8.476,1.078,7.35,2.109,6.732z"/>
	<path fill="#FFFFFF" d="M27.353,11.005c0.218-0.394,0.714-0.611,1.118-0.43c0.33,0.185,0.52,0.551,0.675,0.898  c0.321,0.771,0.487,1.603,0.635,2.428c0.285,1.72,0.434,3.462,0.537,5.204c0.054,0.004,0.162,0.013,0.216,0.019  c-0.056,0.06-0.169,0.181-0.226,0.241c0.201,0.689,0.621,1.28,0.854,1.954c-0.122,0.627-0.468,1.23-0.982,1.571  c-0.751-0.027-1.191-0.793-1.448-1.455c-0.453-1.241-0.689-2.571-0.767-3.897c-0.137,0.01-0.274,0.019-0.41,0.03  c-0.495,1.359-1.052,2.718-1.893,3.878c-0.491,0.669-1.142,1.299-1.96,1.425c-0.5,0.096-1.009-0.148-1.336-0.546  c-0.507-0.603-0.771-1.382-0.989-2.143c-0.482-1.794-0.643-3.663-0.779-5.517c-0.035-0.562-0.405-1.104-0.213-1.671  c0.225-0.626,0.765-1.024,1.266-1.383c0.515,0.169,1.025,0.488,1.281,1.012c0.127,1.447,0.165,2.901,0.285,4.349  c0.172,1.016,0.398,2.022,0.583,3.036c0.137-0.006,0.274-0.012,0.412-0.017c1.585-1.937,2.695-4.381,2.847-6.97  C27.057,12.343,27.012,11.609,27.353,11.005z"/>
	<path fill="#FFFFFF" d="M14.212,11.786c1.201-0.306,2.453,0.034,3.551,0.572c0.328,0.168,0.71,0.317,0.89,0.682  c0.329,0.632-0.127,1.523-0.797,1.59c-0.386,0.047-0.703-0.231-1.039-0.379c-0.755-0.369-1.655-0.591-2.45-0.229  c-0.66,0.302-1.044,1.018-1.243,1.721c-0.308,1.127-0.245,2.341,0.032,3.466c0.215,0.787,0.628,1.656,1.419,1.909  c0.878,0.256,1.749-0.247,2.434-0.793c0.363-0.268,0.665-0.725,1.149-0.725c0.624-0.032,1.16,0.66,1.026,1.307  c-0.093,0.457-0.491,0.722-0.804,1.004c-0.994,0.841-2.198,1.556-3.507,1.489c-1-0.026-1.923-0.624-2.532-1.448  c-0.878-1.124-1.345-2.569-1.415-4.021c-0.116-1.64,0.281-3.34,1.212-4.664C12.645,12.543,13.381,11.993,14.212,11.786z"/>
	<path fill="#FFFFFF" d="M36.183,12.698c0.086-0.134,0.361-0.003,0.234,0.148C36.326,12.968,36.063,12.854,36.183,12.698z"/>
	<path fill="#FFFFFF" d="M39.383,12.69c0.07,0.115,0.138,0.231,0.206,0.349c-0.117-0.008-0.233-0.02-0.349-0.033  C39.287,12.901,39.334,12.796,39.383,12.69z"/>
	<path fill="#FFFFFF" d="M105.743,7.755c-0.294,0.094-0.586,0.188-0.879,0.281c0.01-1.583-0.035-3.165-0.052-4.749  c-0.165-0.173-0.327-0.348-0.487-0.526c-0.44,0.072-0.892,0.101-1.326-0.019c-0.601-0.141-1.137,0.34-1.734,0.256  c-1.099-0.077-2.201-0.09-3.298-0.202c-0.566,0.191-1.187,0.055-1.775,0.122c1.966-0.396,3.922-0.841,5.884-1.257  c0.343-0.073,0.689-0.138,1.026-0.248c0.158-0.05,0.317-0.1,0.477-0.152c-0.171-0.053-0.343-0.101-0.514-0.143  c-0.349,0.345-0.849,0.248-1.274,0.171c-0.619,0.101-1.246,0.044-1.868,0.053c-3.078-0.005-6.156-0.033-9.232-0.044  c-0.992,0.021-1.982-0.088-2.974-0.066c-3.981,0.105-7.964-0.021-11.945,0.01c0.024-0.075,0.071-0.225,0.094-0.301  c0.51-0.043,1.021-0.066,1.529-0.133c-0.5-0.003-1.057,0.144-1.486-0.213c-1.048-0.053-2.1-0.019-3.145,0.072  c-0.235,0.186-0.515,0.094-0.757-0.017c-0.202,0.095-0.39,0.227-0.6,0.299c-0.382-0.013-0.76-0.069-1.139-0.111  c-0.509-0.099-1.017,0.048-1.524,0.073c-0.223-0.115-0.462-0.179-0.702-0.23c0.02-0.025,0.057-0.077,0.077-0.102  c-1.154-0.153-2.313,0.12-3.471,0.017c-0.932-0.024-1.871,0.002-2.79,0.186c-0.181,0.055-0.347-0.036-0.507-0.108  c-0.582-0.005-1.163,0.021-1.744-0.024c-0.357-0.031-0.696,0.114-1.046,0.144c-1.215,0.12-2.434-0.003-3.651,0.014  c-0.106,0.105-0.209,0.21-0.314,0.315c-0.158,2.981-0.203,5.967-0.203,8.953c0.024,0.623-0.028,1.243-0.055,1.865  c-0.616-0.906-1.55-1.473-2.497-1.902c-0.331,0.131-0.696,0.19-0.993,0.406c-1.89,1.595-3.405,3.79-3.952,6.323  c-0.244,1.134-0.345,2.312-0.236,3.471c0.218,0.985,0.532,2.028,1.257,2.726c0.522,0.506,1.302,0.498,1.924,0.224  c1.27-0.543,2.322-1.516,3.32-2.49c0.438,1.065,0.818,2.254,1.708,2.992c0.278-0.025,0.562-0.017,0.834-0.095  c0.292-0.211,0.366-0.618,0.498-0.946c-0.745-1.959-1.336-4.01-1.498-6.125c-0.008-0.885,0.228-1.752,0.263-2.635  c-0.246-0.619-0.285-1.312-0.602-1.901c0.298-0.064,0.595-0.13,0.893-0.196c-0.027,0.594-0.067,1.187-0.098,1.781  c-0.043,0.534,0.209,1.021,0.331,1.524c0.709,2.357,1.338,4.743,2.1,7.08c-0.074,0.011-0.221,0.034-0.294,0.045  c0.526,0.067,1.116,0.285,1.599-0.063c0.351-0.034,0.704-0.026,1.056-0.002c-1.111,0.377-2.274,0.606-3.335,1.131  c0.205,0.035,0.41,0.07,0.617,0.104c0.092-0.081,0.185-0.162,0.278-0.243c0.35,0.002,0.7,0.016,1.049,0.059  c0.894-0.077,1.791-0.027,2.687-0.035c3.077,0,6.153,0.042,9.231,0.042c1.233-0.019,2.464,0.104,3.698,0.061  c2.393-0.071,4.789-0.011,7.184-0.015c0.854,0.008,1.71-0.009,2.565,0.028c0.883-0.046,1.769,0.035,2.653-0.009  c-0.04,0.069-0.119,0.208-0.159,0.278c-0.529,0.097-1.071,0.066-1.602,0.144c0.532,0.006,1.121-0.139,1.586,0.222  c1.146,0.041,2.298,0.037,3.44-0.084c0.215-0.117,0.454-0.064,0.68-0.019c0.322,0.073,0.555-0.321,0.881-0.242  c0.532,0.048,1.068,0.08,1.595,0.185c0.038-0.022,0.115-0.066,0.153-0.088c0.31,0.001,0.62-0.03,0.929-0.064  c0.252,0.107,0.516,0.18,0.786,0.223c-0.015,0.03-0.046,0.089-0.062,0.118c1.234,0.138,2.477-0.142,3.711-0.016  c0.813-0.015,1.632,0.01,2.441-0.111c0.369-0.043,0.768-0.202,1.113,0.03c0.692,0.006,1.385-0.008,2.077,0.02  c0.391-0.037,0.775-0.153,1.17-0.177c0.104-0.107,0.207-0.213,0.315-0.319c-0.004-2.149,0.161-4.296,0.143-6.446v-4.201  C105.78,11.076,105.676,9.415,105.743,7.755z M51.854,18.981c-0.448,0.64-1.015,1.17-1.589,1.676  c-0.448,0.041-0.898,0.066-1.346,0.099c-0.181-1.855-0.03-3.805,0.816-5.469c0.479-0.966,1.153-1.818,1.941-2.514  c0.149-0.146,0.366-0.097,0.551-0.13c0.08,1.514,0.187,3.028,0.272,4.543C52.53,17.85,52.218,18.465,51.854,18.981z M72.628,19.805  c-0.273,0.241-0.639,0.286-0.975,0.348c-0.795,0.111-1.598,0.171-2.4,0.142c-1.107-0.059-2.184-0.393-3.291-0.446  c-0.526-0.026-1.009,0.28-1.533,0.26c-0.135-0.1-0.24-0.24-0.386-0.323c-0.419,0.039-0.823,0.181-1.243,0.2  c-0.67,0.039-1.339,0.002-2.008,0.011c-0.014,0.189-0.015,0.38-0.015,0.57c-0.14-0.026-0.323,0.027-0.42-0.111  c-0.006-0.094-0.018-0.282-0.024-0.376c-0.226-0.162-0.457-0.319-0.714-0.413c-0.399-0.009-0.809,0.27-1.195,0.078  c-0.364-0.26-0.286-0.803-0.212-1.197c0.213-0.175,0.416-0.365,0.607-0.569c-0.007-0.103-0.023-0.307-0.03-0.41  c1.743-2.468,3.498-4.928,5.247-7.393c0.439-0.532,0.97-0.976,1.383-1.533c0.032-0.265,0.002-0.532-0.011-0.797  c0.348-0.147,0.7-0.346,0.894-0.703c0.386-0.681,0.795-1.346,1.21-2.007c0.191-0.343,0.382-0.797,0.2-1.183  c-0.352-0.452-0.935-0.569-1.445-0.705c-0.584-0.175-1.154,0.143-1.74,0.089c-1.029-0.022-2.176-0.285-3.09,0.373  c-1.028,0.779-1.058,2.356-2.034,3.183c-0.249,0.218-0.445,0.491-0.659,0.745c-0.361-0.268-0.366-0.756-0.288-1.174  c0.112-0.546-0.086-1.091-0.027-1.637c0.083-0.487,0.277-0.95,0.289-1.45c-0.025-0.283,0.2-0.47,0.368-0.65  c0.412-0.408,0.999-0.54,1.547-0.501c0.686,0.049,1.359,0.238,2.05,0.236c1.896,0.024,3.798,0.042,5.685,0.264  c0.332,0.036,0.654,0.141,0.98,0.211c0.379,0.107,0.747-0.115,1.127-0.088c0.414,0.025,0.822,0.132,1.239,0.138  c0.166,0.243,0.306,0.506,0.457,0.759c0.171-0.251,0.307-0.526,0.468-0.786c0.29,0.162,0.355,0.579,0.184,0.86  c-0.526,0.978-1.157,1.886-1.762,2.81c-0.673,0.993-1.319,2.012-2.093,2.921c-0.184,0.196-0.218,0.471-0.176,0.733  c-0.5,0.278-0.741,0.848-1.123,1.262c-0.222,0.432-0.346,0.92-0.603,1.333c-0.4,0.448-0.866,0.84-1.177,1.37  c-0.788,1.409-1.829,2.629-2.657,4.011c0.204,0.282,0.445,0.555,0.773,0.669c0.651,0.244,1.347,0.074,2.019,0.086  c0.024-0.086,0.072-0.257,0.096-0.343c0.183,0.092,0.343,0.223,0.49,0.37c0.676-0.104,1.343,0.138,2.021,0.093  c0.449-0.026,0.916-0.03,1.345-0.184c0.64-0.551,1.063-1.371,1.792-1.808c0.381-0.252,0.789,0.161,0.835,0.562  c0.103,0.401-0.14,0.754-0.251,1.117C72.468,19.141,72.613,19.459,72.628,19.805z M87.811,15.184  c-0.487,1.517-1.372,2.865-2.445,3.976c-0.976,1.016-2.228,1.776-3.595,1.959c-1.207,0.163-2.427-0.044-3.605-0.325  c-0.864-0.224-1.746-0.501-2.468-1.078c-0.722-0.572-1.379-1.246-1.906-2.025c-0.176-0.264-0.106-0.631-0.305-0.881  c-0.517-0.733-0.961-1.562-1.067-2.487c0.002-0.177-0.165-0.248-0.265-0.354c-0.053-0.877-0.002-1.78,0.326-2.597  c-0.484-0.573-0.307-1.389-0.233-2.083c0.343-2.21,1.816-3.964,3.37-5.359c0.122-0.01,0.245-0.02,0.369-0.028  c0.122-0.155,0.244-0.311,0.369-0.465c0.249-0.019,0.537,0.081,0.755-0.09c0.464-0.332,0.809-0.831,1.314-1.102  c0.213-0.128,0.459-0.028,0.685-0.009c0.508,0.091,1.002-0.193,1.511-0.108c0.313,0.042,0.574,0.244,0.813,0.45  c0.416-0.017,0.832-0.111,1.252-0.086c0.512,0.031,0.886,0.437,1.288,0.724c0.56,0.453,1.158,0.874,1.623,1.444  c0.541,0.79,1.002,1.637,1.495,2.462c0.586,0.978,0.476,2.193,0.79,3.267C88.33,11.942,88.306,13.645,87.811,15.184z   M102.154,17.466c-0.928,1.42-2.173,2.702-3.748,3.241c-1.308,0.455-2.715,0.258-4.029-0.056c-0.864-0.219-1.745-0.481-2.478-1.036  c-0.706-0.551-1.339-1.217-1.848-1.976c-0.179-0.259-0.114-0.624-0.304-0.875c-0.496-0.719-0.896-1.545-0.964-2.449  c-0.078-0.06-0.154-0.12-0.23-0.18c-0.028-0.822,0.027-1.663,0.341-2.425c-0.11-0.208-0.284-0.403-0.275-0.656  c-0.056-1.32,0.354-2.628,1.053-3.709c0.579-0.904,1.323-1.671,2.105-2.371c0.123-0.14,0.313-0.113,0.476-0.143  c0.112-0.136,0.224-0.272,0.337-0.409c0.242-0.016,0.519,0.083,0.731-0.086c0.424-0.3,0.748-0.746,1.21-0.985  c0.218-0.116,0.464-0.006,0.693,0.008c0.478,0.078,0.952-0.191,1.428-0.06c0.255,0.056,0.463,0.235,0.661,0.407  c0.388,0.001,0.776-0.073,1.164-0.05c0.475,0.028,0.818,0.409,1.185,0.684c0.526,0.442,1.095,0.85,1.52,1.409  c0.489,0.74,0.908,1.528,1.348,2.302c0.378,0.64,0.42,1.414,0.519,2.142c0.084,0.74,0.349,1.442,0.401,2.187  C103.63,14.173,103.119,15.998,102.154,17.466z"/>
	<path fill="#FFFFFF" d="M35.961,13.392c0.068-0.125,0.315-0.131,0.317,0.046C36.264,13.675,35.821,13.646,35.961,13.392z"/>
	<path fill="#FFFFFF" d="M38.906,13.707c0.264-0.046,0.5,0.085,0.716,0.229c-0.007,0.164-0.013,0.33-0.021,0.494  c-0.104-0.148-0.201-0.304-0.266-0.476C39.187,13.88,39.04,13.806,38.906,13.707z"/>
	<path fill="#FFFFFF" d="M42.248,16.794c0.037-1.245-0.346-2.443-0.412-3.681c-0.146-0.481-0.306-0.98-0.691-1.306  c-0.451-0.33-0.977-0.564-1.529-0.584c-1.141-0.216-2.283,0.105-3.425,0.102c-0.043,0.05-0.128,0.153-0.171,0.204l0.031-0.241  c-0.154,0.22-0.358,0.004-0.549,0.033c-0.791,0.005-1.536,0.424-2.069,1.03c-0.252,0.339-0.4,0.745-0.594,1.122  c-0.512,0.77-0.4,1.77-0.499,2.661c0.071,0.198,0.041,0.46,0.238,0.58c-0.035-0.002-0.106-0.006-0.14-0.009  c0.004,0.239-0.02,0.769,0.338,0.456c-0.013,0.253,0.003,0.513-0.096,0.752c0.135,0.103,0.453,0.202,0.317,0.441  c-0.166,0.028-0.415-0.131-0.48,0.113c0.041,0.361-0.016,0.737,0.093,1.088c-0.037,0.113-0.075,0.224-0.112,0.338  c0.307,0.4,0.26,0.986,0.599,1.372c0.673,0.592,1.522,0.979,2.405,0.977c0.44,0.067,0.957-0.186,1.331,0.166  c0.034-0.038,0.102-0.115,0.135-0.153c0.503-0.023,1.005-0.066,1.505-0.134c0.568-0.085,1.158-0.079,1.697-0.314  c0.207-0.108,0.406-0.236,0.62-0.333c0.182-0.201,0.372-0.392,0.585-0.555c0.329-0.863,0.383-1.803,0.632-2.689  c0.065-0.195-0.014-0.407,0.083-0.594c-0.099-0.021-0.199-0.041-0.298-0.06l0.021,0.185c-0.05-0.058-0.152-0.174-0.203-0.231  c0.154-0.001,0.308-0.006,0.462-0.017c0.09-0.183,0.146-0.404,0.077-0.605c-0.143,0.074-0.292,0.139-0.455,0.113  c0.078-0.319-0.03-0.7,0.192-0.969c0.068,0.293,0.137,0.596-0.028,0.873C41.987,16.88,42.118,16.836,42.248,16.794z M39.711,20.651  c-0.433,0.471-1.115,0.282-1.666,0.404c-0.159-0.299-0.08-0.651-0.162-0.969c-0.075-0.216-0.155-0.43-0.228-0.646  c0.272-0.637,0.207-1.364,0.296-2.044c-0.283-0.036-0.56-0.106-0.836-0.178c-0.213,0.07-0.437,0.063-0.657,0.061  c-0.016,0.09-0.032,0.18-0.047,0.27c-0.005-0.09-0.013-0.269-0.018-0.359c-0.142,0.012-0.283,0.019-0.424,0.021  c-0.087-0.005-0.174-0.01-0.26-0.019c-0.549-0.152-1.137-0.088-1.658-0.354c0.096-0.068,0.194-0.133,0.293-0.198l0.049,0.084  c-0.013-0.159-0.027-0.318-0.041-0.477c0.09,0.05,0.18,0.101,0.272,0.152l-0.248,0.063c0.109,0.212,0.28,0.365,0.48,0.475  c0.881,0.096,1.781,0.07,2.645,0.304c0.147-0.019,0.294-0.037,0.44-0.063c0.074-1.115-0.126-2.212-0.195-3.32  c0.47-0.178,0.926,0.048,1.34,0.276c0.14,0.481,0.332,0.955,0.35,1.465c0.055,0.966,0.276,1.907,0.309,2.874  c0.006,0.232,0.159,0.437,0.128,0.673C39.843,19.647,39.96,20.196,39.711,20.651z"/>
	<path fill="#FFFFFF" d="M32.713,16.727c0.096-0.043,0.192-0.081,0.291-0.115c-0.015,0.19-0.087,0.355-0.257,0.435  C32.731,16.941,32.716,16.835,32.713,16.727z"/>
	<path fill="#FFFFFF" d="M33.537,16.896c0.167-0.057,0.227,0.001,0.175,0.177C33.545,17.131,33.487,17.072,33.537,16.896z"/>
	<path fill="#FFFFFF" d="M40.908,16.872c0.113,0.093,0.221,0.193,0.328,0.294c-0.018,0.152-0.035,0.305-0.05,0.457  c-0.112-0.032-0.222-0.064-0.332-0.097c0.076-0.101,0.152-0.2,0.229-0.301C41.021,17.11,40.963,16.991,40.908,16.872z"/>
	<path fill="#FFFFFF" d="M36.829,18.202c0.19,0.004,0.397-0.104,0.57,0.023c-0.119,0.038-0.236,0.08-0.352,0.123  c-0.158,0.36-0.326,0.716-0.549,1.036c0.211,0.281,0.508,0.456,0.777,0.665c-0.393-0.096-0.762-0.324-1.005-0.672  c0.202-0.322,0.415-0.64,0.534-1.01c-0.851-0.081-1.703,0.037-2.554-0.034c0.099-0.057,0.202-0.128,0.322-0.11  C35.325,18.227,36.077,18.185,36.829,18.202z"/>
	<path fill="#FFFFFF" d="M33.436,18.335c0.167-0.159,0.391-0.172,0.603-0.132l0.023,0.063l-0.028,0.063  C33.836,18.36,33.634,18.353,33.436,18.335z"/>
	<path fill="#FFFFFF" d="M37.046,18.968c0.134-0.067,0.259,0.172,0.093,0.218C37.005,19.253,36.877,19.007,37.046,18.968z"/>
	<path fill="#FFFFFF" d="M34.768,20.594c-0.099-0.267,0.134-0.463,0.31-0.608C35.099,20.248,34.92,20.422,34.768,20.594z"/>
	<path fill="#FFFFFF" d="M0,23.256c0.125,0.359,0.398,0.64,0.732,0.776c0.851,0.368,1.786,0.42,2.693,0.477H0V23.256z"/>
	<path fill="#FFFFFF" d="M71.188,23.574c0.355-0.052,0.716-0.033,1.072,0.009C71.907,23.616,71.527,23.738,71.188,23.574z"/>
	<path fill="#FFFFFF" d="M101.67,24.51c0.024-0.219,0.328-0.392,0.405-0.111c-0.068,0.028-0.203,0.084-0.271,0.111H101.67z"/>
</svg>
