<svg xmlns="http://www.w3.org/2000/svg" xmlns:xlink="http://www.w3.org/1999/xlink" version="1.1" id="a" x="0px" y="0px" style="enable-background:new 0 0 212.1 36;" xml:space="preserve" viewBox="-0.2 0 212.3 36">
<style type="text/css">
	.st0{fill:#29265B;}
	.st1{fill:#1B9DD9;}
	.st2{fill:#008E39;}
	.st3{fill:#E30B17;}
	.st4{fill:#F39204;}
	.st5{fill:#1D3057;}
	.st6{fill:#FFFFFF;}
</style>
<g>
	<g>
		<path id="Tracciato_1" class="st0" d="M14.1,9.6c-0.5-0.8-1.2-1.4-2.1-1.8c-0.8-0.4-1.7-0.5-2.7-0.5c-0.7,0-1.3,0.1-2,0.2    C6.8,7.6,6.2,7.9,5.7,8.2C5.2,8.6,4.7,9,4.4,9.6c-0.3,0.6-0.5,1.3-0.5,2c0,0.5,0.1,1,0.3,1.5c0.2,0.5,0.5,0.9,0.9,1.2    c0.5,0.4,1.1,0.8,1.7,1c0.7,0.3,1.6,0.6,2.6,1c1,0.4,2,0.7,2.9,1c0.9,0.4,1.7,0.8,2.5,1.4c0.7,0.6,1.3,1.3,1.7,2.1    c0.5,1,0.7,2.1,0.6,3.2c0,1.2-0.2,2.3-0.8,3.3c-0.5,0.9-1.2,1.7-2.1,2.4c-0.9,0.6-1.9,1.1-2.9,1.4c-1.1,0.3-2.3,0.5-3.4,0.5    c-0.8,0-1.5-0.1-2.3-0.2c-0.8-0.1-1.5-0.3-2.2-0.6c-0.7-0.3-1.3-0.7-2-1.1c-0.6-0.5-1.2-1-1.6-1.7l2.7-2.1C3.2,26.7,4,27.4,5,27.9    c1,0.5,2.1,0.7,3.2,0.8c0.7,0,1.3-0.1,2-0.3c0.6-0.2,1.3-0.5,1.8-0.8c0.5-0.4,1-0.9,1.3-1.4c0.3-0.6,0.5-1.3,0.5-2    c0-0.7-0.1-1.4-0.4-2c-0.3-0.5-0.7-1-1.2-1.3c-0.7-0.4-1.4-0.8-2.1-1C9,19.6,8,19.3,7,18.9c-0.9-0.3-1.7-0.6-2.6-1    c-0.7-0.4-1.4-0.8-2.1-1.4c-0.6-0.6-1-1.2-1.4-2c-0.4-0.9-0.5-1.8-0.5-2.7c0-1.1,0.2-2.3,0.8-3.3c0.5-0.9,1.2-1.7,2-2.4    C4.1,5.6,5,5.1,6,4.8c1.1-0.3,2.2-0.5,3.3-0.5c1.4,0,2.7,0.2,4,0.7c1.3,0.5,2.4,1.3,3.3,2.3L14.1,9.6z"/>
		<path id="Tracciato_2" class="st0" d="M20.7,5h16.3v2.9H23.9v8h12.3v2.9H23.9V28h13.8v2.9h-17V5z"/>
		<path id="Tracciato_3" class="st0" d="M55.4,5h-2.9L41.1,30.9h3.5c0,0,3.6-8.7,3.9-9.2L53.9,9H54l8.9,21.9h3.6L55.4,5z"/>
		<path id="Tracciato_4" class="st0" d="M86.7,10.3c-0.7-1-1.7-1.8-2.9-2.4c-1.1-0.5-2.3-0.8-3.6-0.8c-1.4,0-2.7,0.3-4,0.9    c-1.2,0.6-2.2,1.4-3.1,2.4c-0.9,1-1.6,2.2-2.1,3.4c-0.5,1.3-0.7,2.7-0.8,4.1c0,1.5,0.2,2.9,0.8,4.3c0.4,1.3,1.1,2.4,2.1,3.4    c0.9,1,1.9,1.8,3.1,2.3c2.7,1.1,5.7,1.1,8.3-0.1c1.3-0.6,2.4-1.5,3.3-2.7l2.3,2c-1.1,1.5-2.5,2.7-4.3,3.4    c-1.8,0.8-3.6,1.1-5.6,1.1c-1.8,0-3.5-0.3-5.2-1c-1.6-0.6-3-1.6-4.2-2.8c-1.2-1.2-2.2-2.7-2.8-4.3c-0.7-1.7-1-3.6-1-5.5    c0-1.8,0.3-3.6,1-5.3c0.6-1.6,1.5-3.1,2.7-4.3C72,7.2,73.5,6.2,75,5.5c3.3-1.4,7.1-1.4,10.4-0.1c1.6,0.6,3,1.7,4.1,3.1L86.7,10.3z    "/>
		<path id="Tracciato_5" class="st1" d="M48.3,22.1c0,1.3-1,2.3-2.3,2.3c-1.3,0-2.3-1-2.3-2.3c0-1.3,1-2.3,2.3-2.3c0,0,0,0,0,0    C47.2,19.8,48.2,20.8,48.3,22.1z"/>
		<path id="Tracciato_6" class="st2" d="M53.5,22.1c0,1.3-1,2.3-2.3,2.3c-1.3,0-2.3-1-2.3-2.3c0-1.3,1-2.3,2.3-2.3c0,0,0,0,0,0    C52.5,19.9,53.5,20.9,53.5,22.1z"/>
		<path id="Tracciato_7" class="st3" d="M58.6,22.1c0,1.3-1,2.3-2.3,2.3c-1.3,0-2.3-1-2.3-2.3c0-1.3,1-2.3,2.3-2.3c0,0,0,0,0,0    C57.6,19.8,58.6,20.8,58.6,22.1z"/>
		<path id="Tracciato_8" class="st4" d="M63.8,22.1c0,1.3-1,2.3-2.3,2.3c-1.3,0-2.3-1-2.3-2.3c0-1.3,1-2.3,2.3-2.3c0,0,0,0,0,0    C62.7,19.9,63.7,20.9,63.8,22.1z"/>
	</g>
	<path id="Tracciato_9" class="st5" d="M212.1,0H97.5v36h114.5V0z"/>
</g>
<path id="Tracciato_10" class="st6" d="M113.6,5.8h3l10.6,24.9h-3.9l-2.5-6.2h-11.8l-2.5,6.2h-3.9L113.6,5.8z M119.7,21.6l-4.6-11.4  H115l-4.7,11.4H119.7z"/>
<path id="Tracciato_11" class="st6" d="M129.9,5.8h3.4v21.7h11.4v3.2h-14.8V5.8z"/>
<path id="Tracciato_12" class="st6" d="M147.4,5.8h3.4v21.7h11.4v3.2h-14.8V5.8z"/>
<path id="Tracciato_13" class="st6" d="M171.6,23.6h-8.7v-3h8.7V23.6z"/>
<path id="Tracciato_14" class="st6" d="M175.3,5.8h3.4v24.9h-3.4V5.8z"/>
<path id="Tracciato_15" class="st6" d="M184.3,5.8h4.4l13.7,20.4h0.1V5.8h3.4v24.9h-4.3l-13.8-20.4h-0.1v20.4h-3.4V5.8z"/>
</svg>